<mxfile host="app.diagrams.net" modified="2023-10-19T17:26:05.794Z" agent="Mozilla/5.0 (Windows NT 10.0; Win64; x64) AppleWebKit/537.36 (KHTML, like Gecko) Chrome/116.0.0.0 Safari/537.36 OPR/102.0.0.0" etag="ulIyehTzmnGg5Em2duVG" version="22.0.5" type="github">
  <diagram id="C5RBs43oDa-KdzZeNtuy" name="Page-1">
    <mxGraphModel dx="1009" dy="542" grid="1" gridSize="10" guides="1" tooltips="1" connect="1" arrows="1" fold="1" page="1" pageScale="1" pageWidth="827" pageHeight="1169" math="0" shadow="0">
      <root>
        <mxCell id="WIyWlLk6GJQsqaUBKTNV-0" />
        <mxCell id="WIyWlLk6GJQsqaUBKTNV-1" parent="WIyWlLk6GJQsqaUBKTNV-0" />
        <mxCell id="kD6Mo4vfzYvjTnUpct2I-0" value="Host 1" style="swimlane;startSize=23;labelBackgroundColor=none;fillColor=#A8DADC;strokeColor=#457B9D;fontColor=#1D3557;fontSize=15;fontFamily=Times New Roman;rounded=1;" parent="WIyWlLk6GJQsqaUBKTNV-1" vertex="1">
          <mxGeometry x="40" y="320" width="105" height="90" as="geometry" />
        </mxCell>
        <mxCell id="kD6Mo4vfzYvjTnUpct2I-3" value="" style="shape=image;verticalLabelPosition=bottom;labelBackgroundColor=none;verticalAlign=top;aspect=fixed;imageAspect=0;image=https://vmssoftware.com/images/intro/product/mosquitto.png;fillColor=#A8DADC;strokeColor=#457B9D;fontColor=#1D3557;rounded=1;" parent="kD6Mo4vfzYvjTnUpct2I-0" vertex="1">
          <mxGeometry x="35" y="27.5" width="35" height="35" as="geometry" />
        </mxCell>
        <mxCell id="kD6Mo4vfzYvjTnUpct2I-4" value="&lt;font face=&quot;Times New Roman&quot; style=&quot;font-size: 15px;&quot;&gt;MQTT Broker&lt;/font&gt;" style="text;html=1;align=center;verticalAlign=middle;resizable=0;points=[];autosize=1;strokeColor=none;fillColor=none;labelBackgroundColor=none;fontColor=#1D3557;rounded=1;" parent="kD6Mo4vfzYvjTnUpct2I-0" vertex="1">
          <mxGeometry x="-2.5" y="60" width="110" height="30" as="geometry" />
        </mxCell>
        <mxCell id="kD6Mo4vfzYvjTnUpct2I-2" value="&lt;font face=&quot;Times New Roman&quot; style=&quot;font-size: 19px;&quot;&gt;&lt;b&gt;Controller&lt;/b&gt;&lt;/font&gt;" style="rounded=1;whiteSpace=wrap;html=1;labelBackgroundColor=none;fillColor=#A8DADC;strokeColor=#457B9D;fontColor=#1D3557;" parent="WIyWlLk6GJQsqaUBKTNV-1" vertex="1">
          <mxGeometry x="281" y="150" width="103" height="50" as="geometry" />
        </mxCell>
        <mxCell id="kD6Mo4vfzYvjTnUpct2I-5" value="Host 2" style="swimlane;startSize=23;labelBackgroundColor=none;fillColor=#A8DADC;strokeColor=#457B9D;fontColor=#1D3557;fontSize=15;fontFamily=Times New Roman;rounded=1;" parent="WIyWlLk6GJQsqaUBKTNV-1" vertex="1">
          <mxGeometry x="160" y="320" width="105" height="90" as="geometry" />
        </mxCell>
        <mxCell id="kD6Mo4vfzYvjTnUpct2I-7" value="&lt;font face=&quot;Times New Roman&quot; style=&quot;font-size: 15px;&quot;&gt;Eclipse Ditto&lt;/font&gt;" style="text;html=1;align=center;verticalAlign=middle;resizable=0;points=[];autosize=1;strokeColor=none;fillColor=none;labelBackgroundColor=none;fontColor=#1D3557;rounded=1;" parent="kD6Mo4vfzYvjTnUpct2I-5" vertex="1">
          <mxGeometry x="2.5" y="60" width="100" height="30" as="geometry" />
        </mxCell>
        <mxCell id="kD6Mo4vfzYvjTnUpct2I-28" value="" style="shape=image;verticalLabelPosition=bottom;labelBackgroundColor=none;verticalAlign=top;aspect=fixed;imageAspect=0;image=https://predictiveworks.github.io/assets/images/ditto.png;fillColor=#A8DADC;strokeColor=#457B9D;fontColor=#1D3557;rounded=1;" parent="kD6Mo4vfzYvjTnUpct2I-5" vertex="1">
          <mxGeometry x="35" y="27.5" width="35" height="35" as="geometry" />
        </mxCell>
        <mxCell id="kD6Mo4vfzYvjTnUpct2I-8" value="Host 3" style="swimlane;startSize=23;labelBackgroundColor=none;fillColor=#A8DADC;strokeColor=#457B9D;fontColor=#1D3557;fontSize=15;fontFamily=Times New Roman;rounded=1;" parent="WIyWlLk6GJQsqaUBKTNV-1" vertex="1">
          <mxGeometry x="284" y="320" width="100" height="90" as="geometry" />
        </mxCell>
        <mxCell id="kD6Mo4vfzYvjTnUpct2I-10" value="&lt;font style=&quot;font-size: 15px;&quot;&gt;Telegraf&lt;/font&gt;" style="text;html=1;align=center;verticalAlign=middle;resizable=0;points=[];autosize=1;strokeColor=none;fillColor=none;labelBackgroundColor=none;fontColor=#1D3557;rounded=1;" parent="kD6Mo4vfzYvjTnUpct2I-8" vertex="1">
          <mxGeometry x="10" y="60" width="80" height="30" as="geometry" />
        </mxCell>
        <mxCell id="kD6Mo4vfzYvjTnUpct2I-31" value="" style="shape=image;verticalLabelPosition=bottom;labelBackgroundColor=none;verticalAlign=top;aspect=fixed;imageAspect=0;image=https://projects.task.gda.pl/uploads/-/system/project/avatar/318/telegraf_role_logo.png;fillColor=#A8DADC;strokeColor=#457B9D;fontColor=#1D3557;rounded=1;" parent="kD6Mo4vfzYvjTnUpct2I-8" vertex="1">
          <mxGeometry x="34.75" y="29.75" width="30.5" height="30.5" as="geometry" />
        </mxCell>
        <mxCell id="kD6Mo4vfzYvjTnUpct2I-11" value="Host 4" style="swimlane;startSize=23;labelBackgroundColor=none;fillColor=#A8DADC;strokeColor=#457B9D;fontColor=#1D3557;fontSize=15;fontFamily=Times New Roman;rounded=1;" parent="WIyWlLk6GJQsqaUBKTNV-1" vertex="1">
          <mxGeometry x="400" y="320" width="100" height="90" as="geometry" />
        </mxCell>
        <mxCell id="kD6Mo4vfzYvjTnUpct2I-13" value="&lt;font face=&quot;Times New Roman&quot; style=&quot;font-size: 15px;&quot;&gt;InfluxDB&lt;/font&gt;" style="text;html=1;align=center;verticalAlign=middle;resizable=0;points=[];autosize=1;strokeColor=none;fillColor=none;labelBackgroundColor=none;fontColor=#1D3557;rounded=1;" parent="kD6Mo4vfzYvjTnUpct2I-11" vertex="1">
          <mxGeometry x="10" y="58" width="80" height="30" as="geometry" />
        </mxCell>
        <mxCell id="kD6Mo4vfzYvjTnUpct2I-32" value="" style="shape=image;verticalLabelPosition=bottom;labelBackgroundColor=none;verticalAlign=top;aspect=fixed;imageAspect=0;image=https://assets.zabbix.com/img/brands/influxdb.svg;fillColor=#A8DADC;strokeColor=#457B9D;fontColor=#1D3557;direction=south;rounded=1;" parent="kD6Mo4vfzYvjTnUpct2I-11" vertex="1">
          <mxGeometry x="34.400000000000006" y="29.41" width="31.19" height="31.19" as="geometry" />
        </mxCell>
        <mxCell id="kD6Mo4vfzYvjTnUpct2I-14" value="Host 5" style="swimlane;startSize=23;labelBackgroundColor=none;fillColor=#A8DADC;strokeColor=#457B9D;fontColor=#1D3557;fontSize=15;fontFamily=Times New Roman;rounded=1;" parent="WIyWlLk6GJQsqaUBKTNV-1" vertex="1">
          <mxGeometry x="520" y="320" width="110" height="90" as="geometry" />
        </mxCell>
        <mxCell id="kD6Mo4vfzYvjTnUpct2I-16" value="&lt;font face=&quot;Times New Roman&quot; style=&quot;font-size: 15px;&quot;&gt;Grafana&lt;/font&gt;" style="text;html=1;align=center;verticalAlign=middle;resizable=0;points=[];autosize=1;strokeColor=none;fillColor=none;labelBackgroundColor=none;fontColor=#1D3557;rounded=1;" parent="kD6Mo4vfzYvjTnUpct2I-14" vertex="1">
          <mxGeometry x="20" y="58" width="70" height="30" as="geometry" />
        </mxCell>
        <mxCell id="kD6Mo4vfzYvjTnUpct2I-34" value="" style="shape=image;verticalLabelPosition=bottom;labelBackgroundColor=none;verticalAlign=top;aspect=fixed;imageAspect=0;image=https://seeklogo.com/images/G/grafana-logo-15BA0AFA8A-seeklogo.com.png;fillColor=#A8DADC;strokeColor=#457B9D;fontColor=#1D3557;rounded=1;" parent="kD6Mo4vfzYvjTnUpct2I-14" vertex="1">
          <mxGeometry x="35.28" y="28.99" width="29.45" height="32.02" as="geometry" />
        </mxCell>
        <mxCell id="kD6Mo4vfzYvjTnUpct2I-17" value="&lt;font face=&quot;Times New Roman&quot; style=&quot;font-size: 15px;&quot;&gt;&lt;b&gt;Switch 1&lt;/b&gt;&lt;/font&gt;" style="shape=cube;whiteSpace=wrap;html=1;boundedLbl=1;backgroundOutline=1;darkOpacity=0.05;darkOpacity2=0.1;labelBackgroundColor=none;fillColor=#A8DADC;strokeColor=#457B9D;fontColor=#1D3557;rounded=1;" parent="WIyWlLk6GJQsqaUBKTNV-1" vertex="1">
          <mxGeometry x="110" y="230" width="90" height="40" as="geometry" />
        </mxCell>
        <mxCell id="kD6Mo4vfzYvjTnUpct2I-18" value="&lt;font face=&quot;Times New Roman&quot; style=&quot;font-size: 15px;&quot;&gt;&lt;b&gt;Switch 2&lt;/b&gt;&lt;/font&gt;" style="shape=cube;whiteSpace=wrap;html=1;boundedLbl=1;backgroundOutline=1;darkOpacity=0.05;darkOpacity2=0.1;labelBackgroundColor=none;fillColor=#A8DADC;strokeColor=#457B9D;fontColor=#1D3557;rounded=1;" parent="WIyWlLk6GJQsqaUBKTNV-1" vertex="1">
          <mxGeometry x="230" y="230" width="90" height="40" as="geometry" />
        </mxCell>
        <mxCell id="kD6Mo4vfzYvjTnUpct2I-19" value="&lt;font face=&quot;Times New Roman&quot; style=&quot;font-size: 15px;&quot;&gt;&lt;b&gt;Switch 3&lt;/b&gt;&lt;/font&gt;" style="shape=cube;whiteSpace=wrap;html=1;boundedLbl=1;backgroundOutline=1;darkOpacity=0.05;darkOpacity2=0.1;labelBackgroundColor=none;fillColor=#A8DADC;strokeColor=#457B9D;fontColor=#1D3557;rounded=1;" parent="WIyWlLk6GJQsqaUBKTNV-1" vertex="1">
          <mxGeometry x="350" y="230" width="94" height="40" as="geometry" />
        </mxCell>
        <mxCell id="kD6Mo4vfzYvjTnUpct2I-20" value="&lt;font face=&quot;Times New Roman&quot; style=&quot;font-size: 15px;&quot;&gt;&lt;b&gt;Switch 4&lt;/b&gt;&lt;/font&gt;" style="shape=cube;whiteSpace=wrap;html=1;boundedLbl=1;backgroundOutline=1;darkOpacity=0.05;darkOpacity2=0.1;labelBackgroundColor=none;fillColor=#A8DADC;strokeColor=#457B9D;fontColor=#1D3557;rounded=1;" parent="WIyWlLk6GJQsqaUBKTNV-1" vertex="1">
          <mxGeometry x="470" y="230" width="94" height="40" as="geometry" />
        </mxCell>
        <mxCell id="kD6Mo4vfzYvjTnUpct2I-35" value="" style="endArrow=none;dashed=1;html=1;dashPattern=1 3;strokeWidth=2;rounded=1;entryX=0;entryY=0.5;entryDx=0;entryDy=0;exitX=0;exitY=0;exitDx=40;exitDy=0;exitPerimeter=0;labelBackgroundColor=none;strokeColor=#457B9D;fontColor=default;" parent="WIyWlLk6GJQsqaUBKTNV-1" source="kD6Mo4vfzYvjTnUpct2I-17" target="kD6Mo4vfzYvjTnUpct2I-2" edge="1">
          <mxGeometry width="50" height="50" relative="1" as="geometry">
            <mxPoint x="190" y="190" as="sourcePoint" />
            <mxPoint x="340" y="100" as="targetPoint" />
          </mxGeometry>
        </mxCell>
        <mxCell id="kD6Mo4vfzYvjTnUpct2I-36" value="" style="endArrow=none;dashed=1;html=1;dashPattern=1 3;strokeWidth=2;rounded=1;entryX=0.25;entryY=1;entryDx=0;entryDy=0;exitX=0;exitY=0;exitDx=40;exitDy=0;exitPerimeter=0;labelBackgroundColor=none;strokeColor=#457B9D;fontColor=default;" parent="WIyWlLk6GJQsqaUBKTNV-1" source="kD6Mo4vfzYvjTnUpct2I-18" target="kD6Mo4vfzYvjTnUpct2I-2" edge="1">
          <mxGeometry width="50" height="50" relative="1" as="geometry">
            <mxPoint x="320" y="190" as="sourcePoint" />
            <mxPoint x="470" y="100" as="targetPoint" />
          </mxGeometry>
        </mxCell>
        <mxCell id="kD6Mo4vfzYvjTnUpct2I-37" value="" style="endArrow=none;dashed=1;html=1;dashPattern=1 3;strokeWidth=2;rounded=1;entryX=0.5;entryY=1;entryDx=0;entryDy=0;exitX=0;exitY=0;exitDx=40;exitDy=0;exitPerimeter=0;labelBackgroundColor=none;strokeColor=#457B9D;fontColor=default;" parent="WIyWlLk6GJQsqaUBKTNV-1" source="kD6Mo4vfzYvjTnUpct2I-19" target="kD6Mo4vfzYvjTnUpct2I-2" edge="1">
          <mxGeometry width="50" height="50" relative="1" as="geometry">
            <mxPoint x="469" y="200" as="sourcePoint" />
            <mxPoint x="530" y="100" as="targetPoint" />
          </mxGeometry>
        </mxCell>
        <mxCell id="kD6Mo4vfzYvjTnUpct2I-38" value="" style="endArrow=none;dashed=1;html=1;dashPattern=1 3;strokeWidth=2;rounded=1;entryX=1;entryY=0.5;entryDx=0;entryDy=0;exitX=0;exitY=0;exitDx=40;exitDy=0;exitPerimeter=0;labelBackgroundColor=none;strokeColor=#457B9D;fontColor=default;" parent="WIyWlLk6GJQsqaUBKTNV-1" source="kD6Mo4vfzYvjTnUpct2I-20" target="kD6Mo4vfzYvjTnUpct2I-2" edge="1">
          <mxGeometry width="50" height="50" relative="1" as="geometry">
            <mxPoint x="630" y="190" as="sourcePoint" />
            <mxPoint x="580" y="90" as="targetPoint" />
          </mxGeometry>
        </mxCell>
      </root>
    </mxGraphModel>
  </diagram>
</mxfile>
